<svg width="417" height="109" viewBox="0 0 417 109" fill="none" xmlns="http://www.w3.org/2000/svg">
<g clip-path="url(#clip0)">
<path d="M36.969 105C35.9643 105 35.0967 104.635 34.366 103.904C33.6353 103.173 33.27 102.306 33.27 101.301V38.555H10.528C9.52333 38.555 8.65567 38.1897 7.925 37.459C7.19433 36.7283 6.829 35.8607 6.829 34.856V12.799C6.829 11.7943 7.19433 10.9267 7.925 10.196C8.65567 9.46533 9.52333 9.09999 10.528 9.09999H90.81C91.8147 9.09999 92.6823 9.46533 93.413 10.196C94.1437 10.9267 94.509 11.7943 94.509 12.799V34.856C94.509 35.8607 94.1437 36.7283 93.413 37.459C92.6823 38.1897 91.8147 38.555 90.81 38.555H68.068V101.301C68.068 102.306 67.7027 103.173 66.972 103.904C66.2413 104.635 65.3737 105 64.369 105H36.969ZM127.502 105C125.767 105 124.397 104.543 123.392 103.63C122.388 102.717 121.703 101.666 121.337 100.479L95.5815 13.073L95.4445 12.114C95.4445 11.292 95.7185 10.607 96.2665 10.059C96.9058 9.41966 97.6365 9.09999 98.4585 9.09999H123.94C125.676 9.09999 127.046 9.55666 128.05 10.47C129.055 11.3833 129.74 12.4337 130.105 13.621L143.12 64.585L156.135 13.621C156.501 12.4337 157.186 11.3833 158.19 10.47C159.195 9.55666 160.565 9.09999 162.3 9.09999H187.782C188.604 9.09999 189.289 9.41966 189.837 10.059C190.477 10.607 190.796 11.292 190.796 12.114L190.659 13.073L164.903 100.479C164.538 101.666 163.853 102.717 162.848 103.63C161.844 104.543 160.474 105 158.738 105H127.502ZM200.604 105C199.599 105 198.731 104.635 198.001 103.904C197.27 103.173 196.905 102.306 196.905 101.301V12.799C196.905 11.7943 197.27 10.9267 198.001 10.196C198.731 9.46533 199.599 9.09999 200.604 9.09999H228.004C229.008 9.09999 229.876 9.46533 230.607 10.196C231.337 10.9267 231.703 11.7943 231.703 12.799V76.915H269.652C270.656 76.915 271.524 77.2803 272.255 78.011C272.985 78.7417 273.351 79.6093 273.351 80.614V101.301C273.351 102.306 272.985 103.173 272.255 103.904C271.524 104.635 270.656 105 269.652 105H200.604ZM282.253 26.225C281.248 26.225 280.38 25.8597 279.65 25.129C278.919 24.3983 278.554 23.5307 278.554 22.526V5.94899C278.554 4.94433 278.919 4.07666 279.65 3.34599C280.38 2.61533 281.248 2.24999 282.253 2.24999H305.406C306.41 2.24999 307.278 2.61533 308.009 3.34599C308.739 4.07666 309.105 4.94433 309.105 5.94899V22.526C309.105 23.5307 308.739 24.3983 308.009 25.129C307.278 25.8597 306.41 26.225 305.406 26.225H282.253ZM281.568 105C280.563 105 279.695 104.635 278.965 103.904C278.234 103.173 277.869 102.306 277.869 101.301V37.459C277.869 36.4543 278.234 35.5867 278.965 34.856C279.695 34.1253 280.563 33.76 281.568 33.76H306.091C307.095 33.76 307.963 34.1253 308.694 34.856C309.424 35.5867 309.79 36.4543 309.79 37.459V101.301C309.79 102.306 309.424 103.173 308.694 103.904C307.963 104.635 307.095 105 306.091 105H281.568ZM315.577 105C314.755 105 314.024 104.726 313.385 104.178C312.837 103.539 312.563 102.808 312.563 101.986C312.563 101.438 312.7 100.936 312.974 100.479L341.744 55.954L315.851 13.621C315.577 13.073 315.44 12.5707 315.44 12.114C315.44 11.292 315.714 10.607 316.262 10.059C316.901 9.41966 317.632 9.09999 318.454 9.09999H348.183C350.74 9.09999 352.658 10.2417 353.937 12.525L363.527 29.239L373.939 12.525C375.217 10.2417 377.135 9.09999 379.693 9.09999H408.052C408.874 9.09999 409.559 9.41966 410.107 10.059C410.746 10.607 411.066 11.292 411.066 12.114C411.066 12.662 410.929 13.1643 410.655 13.621L384.214 55.543L413.395 100.479C413.669 100.936 413.806 101.438 413.806 101.986C413.806 102.808 413.486 103.539 412.847 104.178C412.299 104.726 411.614 105 410.792 105H379.967C377.501 105 375.628 103.95 374.35 101.849L362.431 83.491L351.06 101.849C349.781 103.95 347.909 105 345.443 105H315.577Z" fill="url(#paint0_linear)"/>
</g>
<defs>
<linearGradient id="paint0_linear" x1="-28.1136" y1="139" x2="458.761" y2="139" gradientUnits="userSpaceOnUse">
<stop stop-color="#F33535"/>
<stop offset="1" stop-color="#B90808"/>
</linearGradient>
<clipPath id="clip0">
<rect width="417" height="109" fill="white"/>
</clipPath>
</defs>
</svg>
